# Blender v2.91.0 OBJ File: ''
# www.blender.org
mtllib Board.mtl
o Cube_Cube.001
v -6.767843 3.852556 1.000000
v -6.767843 -3.852556 1.000000
v -6.767843 3.852556 -1.000000
v -6.767843 -3.852556 -1.000000
v 6.767843 3.852556 1.000000
v 6.767843 -3.852556 1.000000
v 6.767843 3.852556 -1.000000
v 6.767843 -3.852556 -1.000000
vt 0.213358 0.146693
vt 0.138881 0.111278
vt 0.087841 0.207240
vt 0.170131 0.189921
vt 0.088849 0.983721
vt 0.950278 0.983721
vt 0.952231 0.478297
vt 0.081037 0.478297
vt 0.326286 0.261574
vt 0.277199 0.210534
vt 0.233972 0.253762
vt 0.285012 0.357536
vt 0.225336 0.111278
vt 0.326286 0.175119
vt 0.198557 0.357536
vt 0.087841 0.293695
vn -1.0000 0.0000 0.0000
vn 0.0000 0.0000 -1.0000
vn 1.0000 0.0000 0.0000
vn 0.0000 0.0000 1.0000
vn 0.0000 1.0000 0.0000
vn 0.0000 -1.0000 0.0000
usemtl None
s off
f 1/1/1 3/2/1 4/3/1 2/4/1
f 3/5/2 7/6/2 8/7/2 4/8/2
f 7/9/3 5/10/3 6/11/3 8/12/3
f 5/10/4 1/1/4 2/4/4 6/11/4
f 3/13/5 1/1/5 5/10/5 7/14/5
f 8/15/6 6/11/6 2/4/6 4/16/6
