# Blender v2.91.0 OBJ File: ''
# www.blender.org
mtllib RightWall.mtl
o Cube
v 19.308033 6.678598 -1.000000
v 19.308033 -1.000000 -1.000000
v 19.308033 6.678598 1.000000
v 19.308033 -1.000000 1.000000
v -1.000000 6.678598 -1.000000
v -1.000000 -1.000000 -1.000000
v -1.000000 6.678598 1.000000
v -1.000000 -1.000000 1.000000
v 1.440814 -1.000000 -1.000000
v 1.440814 6.678598 1.000000
v 1.440814 -1.000000 1.000000
v 1.440814 6.678598 -1.000000
v -1.000000 -1.000000 15.355175
v -1.000000 6.678598 15.355175
v 1.440814 6.678598 15.355175
v 1.440814 -1.000000 15.355175
vt 0.404942 0.442379
vt 0.404942 0.502811
vt 0.454460 0.502811
vt 0.454460 0.442379
vt 0.570349 0.502812
vt 0.380233 0.502812
vt 0.380233 0.858235
vt 0.570349 0.858235
vt 0.380233 0.858234
vt 0.190116 0.858234
vt 0.190116 0.907753
vt 0.380233 0.907753
vt 0.404942 0.442379
vt 0.404942 0.000000
vt 0.355423 0.000000
vt 0.355423 0.442379
vt 0.630782 0.502812
vt 0.630782 0.692928
vt 0.680300 0.692928
vt 0.680300 0.502812
vt 1.000000 0.060433
vt 0.809884 0.060433
vt 0.809884 0.502812
vt 1.000000 0.502812
vt 1.000000 0.000000
vt 0.809884 0.000000
vt 0.404942 0.502811
vt 0.355423 0.502811
vt 0.190116 0.502811
vt 0.000000 0.502811
vt 0.000000 0.945190
vt 0.190116 0.945190
vt 0.404942 0.000000
vt 0.454460 0.000000
vt 0.570349 0.502812
vt 0.570349 0.692928
vt 0.630782 0.692928
vt 0.630782 0.502812
vt 0.380233 0.502811
vt 0.190116 0.502811
vt 0.000000 0.442379
vt 0.000000 0.502811
vt 0.809884 0.502811
vt 0.809884 0.442379
vn 0.0000 1.0000 0.0000
vn 1.0000 0.0000 0.0000
vn -1.0000 0.0000 0.0000
vn 0.0000 -1.0000 0.0000
vn 0.0000 0.0000 -1.0000
vn 0.0000 0.0000 1.0000
usemtl Material
s off
f 12/1/1 5/2/1 7/3/1 10/4/1
f 11/5/2 10/6/2 15/7/2 16/8/2
f 8/9/3 7/10/3 5/11/3 6/12/3
f 9/13/4 2/14/4 4/15/4 11/16/4
f 2/17/2 1/18/2 3/19/2 4/20/2
f 9/21/5 12/22/5 1/23/5 2/24/5
f 6/25/5 5/26/5 12/22/5 9/21/5
f 6/27/4 9/13/4 11/16/4 8/28/4
f 4/29/6 3/30/6 10/31/6 11/32/6
f 1/33/1 12/1/1 10/4/1 3/34/1
f 16/35/6 15/36/6 14/37/6 13/38/6
f 7/10/3 8/9/3 13/39/3 14/40/3
f 8/28/4 11/16/4 16/41/4 13/42/4
f 10/4/1 7/3/1 14/43/1 15/44/1
