# Blender v2.91.0 OBJ File: ''
# www.blender.org
mtllib Table.mtl
o Cylinder
v 1.000000 -0.250000 -0.000000
v 1.000000 0.250000 -0.000000
v 0.980785 -0.250000 0.195090
v 0.980785 0.250000 0.195090
v 0.923880 -0.250000 0.382683
v 0.923880 0.250000 0.382683
v 0.831470 -0.250000 0.555570
v 0.831470 0.250000 0.555570
v 0.707107 -0.250000 0.707107
v 0.707107 0.250000 0.707107
v 0.555570 -0.250000 0.831470
v 0.555570 0.250000 0.831470
v 0.382683 -0.250000 0.923880
v 0.382683 0.250000 0.923880
v 0.195090 -0.250000 0.980785
v 0.195090 0.250000 0.980785
v -0.000000 -0.250000 1.000000
v -0.000000 0.250000 1.000000
v -0.195091 -0.250000 0.980785
v -0.195091 0.250000 0.980785
v -0.382684 -0.250000 0.923879
v -0.382684 0.250000 0.923879
v -0.555571 -0.250000 0.831469
v -0.555571 0.250000 0.831469
v -0.707107 -0.250000 0.707106
v -0.707107 0.250000 0.707106
v -0.831470 -0.250000 0.555570
v -0.831470 0.250000 0.555570
v -0.923880 -0.250000 0.382683
v -0.923880 0.250000 0.382683
v -0.980785 -0.250000 0.195089
v -0.980785 0.250000 0.195089
v -1.000000 -0.250000 -0.000001
v -1.000000 0.250000 -0.000001
v 0.533333 0.250000 0.400000
v -0.533333 0.250000 0.399999
v 0.533333 -0.250000 0.400000
v -0.533333 -0.250000 0.399999
v 0.766667 0.250000 -0.000000
v 0.766667 -0.250000 -0.000000
v -0.766667 0.250000 -0.000001
v -0.766667 -0.250000 -0.000001
v 1.000000 0.156250 -0.000000
v 0.980785 0.156250 0.195090
v 0.923880 0.156250 0.382683
v 0.831470 0.156250 0.555570
v 0.707107 0.156250 0.707107
v 0.555570 0.156250 0.831470
v 0.382683 0.156250 0.923880
v 0.195090 0.156250 0.980785
v -0.000000 0.156250 1.000000
v -0.195091 0.156250 0.980785
v -0.382684 0.156250 0.923879
v -0.555571 0.156250 0.831469
v -0.707107 0.156250 0.707106
v -0.831470 0.156250 0.555570
v -0.923880 0.156250 0.382683
v -0.980785 0.156250 0.195089
v -1.000000 0.156250 -0.000001
v 0.533333 0.156250 0.400000
v -0.533333 0.156250 0.399999
v 0.766667 0.156250 -0.000000
v -0.766667 0.156250 -0.000001
v 1.070772 0.250000 0.212990
v 1.091308 0.250000 0.008993
v 1.008646 0.250000 0.417794
v 0.907757 0.250000 0.606544
v 0.771984 0.250000 0.771984
v 0.606544 0.250000 0.907757
v 0.417794 0.250000 1.008646
v 0.212990 0.250000 1.070772
v -0.000000 0.250000 1.091750
v -0.212990 0.250000 1.070772
v -0.417795 0.250000 1.008645
v -0.606544 0.250000 0.907757
v -0.771984 0.250000 0.771983
v -0.907757 0.250000 0.606543
v -1.008646 0.250000 0.417794
v -1.070773 0.250000 0.212989
v -1.091308 0.250000 0.008992
v 1.091308 0.181532 0.008993
v 1.066144 0.156250 0.006515
v 1.045858 0.156250 0.208034
v 1.070772 0.181532 0.212990
v 0.985176 0.156250 0.408073
v 1.008646 0.181532 0.417794
v 0.886635 0.156250 0.592430
v 0.907757 0.181532 0.606544
v 0.754021 0.156250 0.754021
v 0.771984 0.181532 0.771984
v 0.592430 0.156250 0.886635
v 0.606544 0.181532 0.907757
v 0.408073 0.156250 0.985176
v 0.417794 0.181532 1.008646
v 0.208034 0.156250 1.045857
v 0.212990 0.181532 1.070772
v -0.000000 0.156250 1.066346
v -0.000000 0.181532 1.091750
v -0.208034 0.156250 1.045857
v -0.212990 0.181532 1.070772
v -0.408074 0.156250 0.985175
v -0.417795 0.181532 1.008645
v -0.592431 0.156250 0.886634
v -0.606544 0.181532 0.907757
v -0.754021 0.156250 0.754021
v -0.771984 0.181532 0.771983
v -0.886635 0.156250 0.592430
v -0.907757 0.181532 0.606543
v -0.985177 0.156250 0.408073
v -1.008646 0.181532 0.417794
v -1.045858 0.156250 0.208033
v -1.070773 0.181532 0.212989
v -1.066144 0.156250 0.006514
v -1.091308 0.181532 0.008992
vt 0.656250 0.931532
vt 0.656250 1.000000
vt 0.625000 1.000000
vt 0.625000 0.931532
vt 0.687500 1.000000
vt 0.656250 1.000000
vt 0.687500 1.000000
vt 0.593750 1.000000
vt 0.593750 0.931532
vt 0.281250 1.000000
vt 0.250000 1.000000
vt 0.250000 1.000000
vt 0.281250 1.000000
vt 0.562500 1.000000
vt 0.531250 1.000000
vt 0.531250 1.000000
vt 0.562500 1.000000
vt 0.562500 0.906250
vt 0.593750 0.906250
vt 0.593750 0.906250
vt 0.562500 0.906250
vt 0.437500 1.000000
vt 0.406250 1.000000
vt 0.406250 1.000000
vt 0.437500 1.000000
vt 0.562500 0.931532
vt 0.718750 1.000000
vt 0.718750 1.000000
vt 0.531250 0.931532
vt 0.312500 1.000000
vt 0.312500 1.000000
vt 0.593750 1.000000
vt 0.500000 1.000000
vt 0.500000 0.931532
vt 0.468750 1.000000
vt 0.468750 1.000000
vt 0.468750 0.931532
vt 0.750000 1.000000
vt 0.750000 1.000000
vt 0.333333 0.906250
vt 0.250000 0.906250
vt 0.333333 1.000000
vt 0.666667 0.906250
vt 0.583333 0.906250
vt 0.583333 1.000000
vt 0.666667 1.000000
vt 0.416667 0.906250
vt 0.416667 1.000000
vt 0.343750 1.000000
vt 0.375000 1.000000
vt 0.500000 1.000000
vt 0.625000 1.000000
vt 0.750000 0.500000
vt 0.718750 0.500000
vt 0.687500 0.500000
vt 0.656250 0.500000
vt 0.625000 0.500000
vt 0.593750 0.500000
vt 0.562500 0.500000
vt 0.531250 0.500000
vt 0.500000 0.500000
vt 0.468750 0.500000
vt 0.437500 0.500000
vt 0.406250 0.500000
vt 0.375000 0.500000
vt 0.343750 0.500000
vt 0.312500 0.500000
vt 0.281250 0.500000
vt 0.250000 0.500000
vt 0.333333 0.500000
vt 0.416667 0.500000
vt 0.583333 0.500000
vt 0.666667 0.500000
vt 0.750000 0.906250
vt 0.281250 0.906250
vt 0.312500 0.906250
vt 0.343750 0.906250
vt 0.375000 0.906250
vt 0.406250 0.906250
vt 0.437500 0.906250
vt 0.468750 0.906250
vt 0.500000 0.906250
vt 0.531250 0.906250
vt 0.625000 0.906250
vt 0.656250 0.906250
vt 0.687500 0.906250
vt 0.718750 0.906250
vt 0.750000 0.906250
vt 0.718750 0.906250
vt 0.687500 0.906250
vt 0.656250 0.906250
vt 0.625000 0.906250
vt 0.531250 0.906250
vt 0.500000 0.906250
vt 0.468750 0.906250
vt 0.437500 0.906250
vt 0.437500 0.931532
vt 0.406250 0.931532
vt 0.406250 0.906250
vt 0.375000 0.906250
vt 0.343750 0.906250
vt 0.312500 0.906250
vt 0.281250 0.906250
vt 0.250000 0.906250
vt 0.375000 1.000000
vt 0.250000 0.931532
vt 0.687500 0.931532
vt 0.750000 0.931532
vt 0.718750 0.931532
vt 0.281250 0.931532
vt 0.312500 0.931532
vt 0.343750 1.000000
vt 0.343750 0.931532
vt 0.375000 0.931532
vn 0.7730 0.0000 0.6344
vn 0.0000 1.0000 0.0000
vn 0.6344 0.0000 0.7730
vn 0.0000 -1.0000 0.0000
vn 0.4714 0.0000 0.8819
vn 0.2903 0.0000 0.9569
vn 0.0980 0.0000 0.9952
vn -0.0980 0.0000 0.9952
vn 0.0000 0.0000 -1.0000
vn -0.8638 0.0000 -0.5039
vn 0.8638 0.0000 -0.5039
vn -0.9952 0.0000 0.0980
vn -0.9569 0.0000 0.2903
vn -0.8819 0.0000 0.4714
vn -0.7730 0.0000 0.6344
vn -0.6344 0.0000 0.7730
vn -0.4714 0.0000 0.8819
vn -0.2903 0.0000 0.9569
vn 0.8819 0.0000 0.4714
vn 0.9569 0.0000 0.2903
vn 0.9952 0.0000 0.0980
vn -0.0980 0.0000 -0.9952
vn 0.9950 0.0000 0.1002
vn -0.9950 0.0000 0.1002
vn -0.7035 -0.7072 0.0708
vn -0.6767 -0.7071 0.2053
vn -0.6236 -0.7071 0.3333
vn -0.5466 -0.7071 0.4486
vn -0.4486 -0.7071 0.5466
vn -0.3333 -0.7071 0.6236
vn -0.2053 -0.7071 0.6767
vn -0.0693 -0.7071 0.7037
vn 0.0693 -0.7071 0.7037
vn 0.2053 -0.7071 0.6767
vn 0.3333 -0.7071 0.6236
vn 0.4486 -0.7071 0.5466
vn 0.5466 -0.7071 0.4486
vn 0.6236 -0.7071 0.3333
vn 0.6767 -0.7071 0.2053
vn 0.7035 -0.7072 0.0708
vn 0.0980 0.0000 -0.9952
usemtl None
s off
f 88/1/1 67/2/1 68/3/1 90/4/1
f 6/5/2 8/6/2 67/2/2 66/7/2
f 90/4/3 68/3/3 69/8/3 92/9/3
f 32/10/2 34/11/2 80/12/2 79/13/2
f 14/14/2 16/15/2 71/16/2 70/17/2
f 49/18/4 48/19/4 91/20/4 93/21/4
f 22/22/2 24/23/2 75/24/2 74/25/2
f 92/9/5 69/8/5 70/17/5 94/26/5
f 4/27/2 6/5/2 66/7/2 64/28/2
f 94/26/6 70/17/6 71/16/6 96/29/6
f 30/30/2 32/10/2 79/13/2 78/31/2
f 12/32/2 14/14/2 70/17/2 69/8/2
f 96/29/7 71/16/7 72/33/7 98/34/7
f 20/35/2 22/22/2 74/25/2 73/36/2
f 98/34/8 72/33/8 73/36/8 100/37/8
f 2/38/2 4/27/2 64/28/2 65/39/2
f 63/40/9 59/41/9 34/11/9 41/42/9
f 62/43/10 60/44/10 35/45/10 39/46/10
f 60/44/9 61/47/9 36/48/9 35/45/9
f 4/27/2 2/38/2 39/46/2 35/45/2 36/48/2 41/42/2 34/11/2 32/10/2 30/30/2 28/49/2 26/50/2 24/23/2 22/22/2 20/35/2 18/51/2 16/15/2 14/14/2 12/32/2 10/52/2 8/6/2 6/5/2
f 1/53/4 3/54/4 5/55/4 7/56/4 9/57/4 11/58/4 13/59/4 15/60/4 17/61/4 19/62/4 21/63/4 23/64/4 25/65/4 27/66/4 29/67/4 31/68/4 33/69/4 42/70/4 38/71/4 37/72/4 40/73/4
f 43/74/9 62/43/9 39/46/9 2/38/9
f 61/47/11 63/40/11 41/42/11 36/48/11
f 38/71/11 42/70/11 63/40/11 61/47/11
f 1/53/9 40/73/9 62/43/9 43/74/9
f 37/72/9 38/71/9 61/47/9 60/44/9
f 40/73/10 37/72/10 60/44/10 62/43/10
f 42/70/9 33/69/9 59/41/9 63/40/9
f 31/68/12 58/75/12 59/41/12 33/69/12
f 29/67/13 57/76/13 58/75/13 31/68/13
f 27/66/14 56/77/14 57/76/14 29/67/14
f 25/65/15 55/78/15 56/77/15 27/66/15
f 23/64/16 54/79/16 55/78/16 25/65/16
f 21/63/17 53/80/17 54/79/17 23/64/17
f 19/62/18 52/81/18 53/80/18 21/63/18
f 17/61/8 51/82/8 52/81/8 19/62/8
f 15/60/7 50/83/7 51/82/7 17/61/7
f 13/59/6 49/18/6 50/83/6 15/60/6
f 11/58/5 48/19/5 49/18/5 13/59/5
f 9/57/3 47/84/3 48/19/3 11/58/3
f 7/56/1 46/85/1 47/84/1 9/57/1
f 5/55/19 45/86/19 46/85/19 7/56/19
f 3/54/20 44/87/20 45/86/20 5/55/20
f 1/53/21 43/74/21 44/87/21 3/54/21
f 44/87/4 43/74/4 82/88/4 83/89/4
f 45/86/4 44/87/4 83/89/4 85/90/4
f 46/85/4 45/86/4 85/90/4 87/91/4
f 47/84/4 46/85/4 87/91/4 89/92/4
f 48/19/4 47/84/4 89/92/4 91/20/4
f 50/83/4 49/18/4 93/21/4 95/93/4
f 51/82/4 50/83/4 95/93/4 97/94/4
f 52/81/4 51/82/4 97/94/4 99/95/4
f 53/80/4 52/81/4 99/95/4 101/96/4
f 102/97/17 74/25/17 75/24/17 104/98/17
f 54/79/4 53/80/4 101/96/4 103/99/4
f 55/78/4 54/79/4 103/99/4 105/100/4
f 56/77/4 55/78/4 105/100/4 107/101/4
f 57/76/4 56/77/4 107/101/4 109/102/4
f 58/75/4 57/76/4 109/102/4 111/103/4
f 59/41/4 58/75/4 111/103/4 113/104/4
f 24/23/2 26/50/2 76/105/2 75/24/2
f 34/11/22 59/41/22 113/104/22 114/106/22 80/12/22
f 86/107/19 66/7/19 67/2/19 88/1/19
f 81/108/23 65/39/23 64/28/23 84/109/23
f 112/110/24 79/13/24 80/12/24 114/106/24
f 16/15/2 18/51/2 72/33/2 71/16/2
f 84/109/20 64/28/20 66/7/20 86/107/20
f 110/111/13 78/31/13 79/13/13 112/110/13
f 8/6/2 10/52/2 68/3/2 67/2/2
f 26/50/2 28/49/2 77/112/2 76/105/2
f 108/113/14 77/112/14 78/31/14 110/111/14
f 18/51/2 20/35/2 73/36/2 72/33/2
f 106/114/15 76/105/15 77/112/15 108/113/15
f 104/98/16 75/24/16 76/105/16 106/114/16
f 10/52/2 12/32/2 69/8/2 68/3/2
f 28/49/2 30/30/2 78/31/2 77/112/2
f 100/37/18 73/36/18 74/25/18 102/97/18
f 112/110/25 114/106/25 113/104/25 111/103/25
f 110/111/26 112/110/26 111/103/26 109/102/26
f 108/113/27 110/111/27 109/102/27 107/101/27
f 106/114/28 108/113/28 107/101/28 105/100/28
f 104/98/29 106/114/29 105/100/29 103/99/29
f 102/97/30 104/98/30 103/99/30 101/96/30
f 100/37/31 102/97/31 101/96/31 99/95/31
f 98/34/32 100/37/32 99/95/32 97/94/32
f 96/29/33 98/34/33 97/94/33 95/93/33
f 94/26/34 96/29/34 95/93/34 93/21/34
f 92/9/35 94/26/35 93/21/35 91/20/35
f 90/4/36 92/9/36 91/20/36 89/92/36
f 88/1/37 90/4/37 89/92/37 87/91/37
f 86/107/38 88/1/38 87/91/38 85/90/38
f 84/109/39 86/107/39 85/90/39 83/89/39
f 81/108/40 84/109/40 83/89/40 82/88/40
f 43/74/41 2/38/41 65/39/41 81/108/41 82/88/41
